<?xml version="1.0" standalone="no"?>
<!DOCTYPE svg PUBLIC "-//W3C//DTD SVG 20010904//EN"
 "http://www.w3.org/TR/2001/REC-SVG-20010904/DTD/svg10.dtd">
<svg version="1.0" xmlns="http://www.w3.org/2000/svg"
 width="1063.000000pt" height="1076.000000pt" viewBox="0 0 1063.000000 1076.000000"
 preserveAspectRatio="xMidYMid meet">

<g transform="translate(0.000000,1076.000000) scale(0.100000,-0.100000)"
fill="#000000" stroke="none">
<path d="M4915 10694 c-672 -58 -1237 -209 -1853 -493 -138 -64 -310 -156
-422 -224 -36 -22 -86 -52 -112 -68 -168 -101 -431 -293 -628 -458 -280 -236
-722 -711 -870 -936 -8 -13 -54 -78 -101 -146 -47 -68 -109 -162 -136 -209
-28 -47 -70 -116 -93 -155 -85 -143 -212 -410 -324 -682 -79 -191 -221 -676
-255 -869 -6 -32 -16 -81 -21 -109 -14 -67 -35 -209 -57 -380 -14 -115 -18
-219 -18 -575 0 -462 8 -574 65 -895 142 -800 444 -1523 907 -2176 305 -429
716 -855 1118 -1156 55 -41 109 -82 120 -91 32 -26 323 -215 425 -276 367
-220 915 -444 1345 -550 83 -21 166 -41 185 -46 180 -46 467 -86 790 -111 181
-13 747 -6 885 11 442 56 645 96 980 194 625 183 1275 519 1770 913 44 35 89
71 100 80 148 117 425 382 592 568 231 257 484 607 643 890 111 196 235 445
275 550 13 33 40 98 60 145 40 94 175 489 175 514 0 9 4 24 9 34 25 47 91 368
131 632 l30 195 0 581 c0 565 -1 585 -25 748 -27 188 -74 426 -110 561 -13 50
-31 117 -40 150 -39 150 -165 499 -231 643 -13 29 -36 80 -50 115 -70 168
-256 497 -403 715 -42 63 -83 124 -91 136 -59 87 -221 293 -324 410 -124 141
-376 396 -496 503 -110 97 -346 284 -450 356 -260 180 -479 309 -755 443 -623
301 -1225 464 -1925 519 -221 18 -607 17 -815 -1z m790 -884 c186 -15 354 -40
555 -82 197 -41 522 -135 615 -178 11 -5 72 -29 135 -54 228 -87 517 -239 770
-405 74 -49 366 -264 380 -280 3 -3 34 -31 70 -61 99 -83 313 -292 410 -400
106 -119 288 -350 375 -477 43 -63 145 -223 145 -228 0 -2 26 -48 57 -102 276
-478 461 -1063 535 -1698 17 -147 17 -763 0 -905 -68 -569 -197 -1018 -422
-1475 -361 -734 -872 -1316 -1555 -1773 -82 -55 -293 -182 -302 -182 -2 0 -31
-16 -64 -35 -33 -19 -115 -60 -182 -91 -67 -31 -140 -64 -162 -74 -63 -30
-239 -94 -375 -139 -699 -227 -1498 -272 -2225 -125 -543 111 -1043 311 -1515
608 -249 157 -547 400 -774 631 -114 116 -286 311 -325 369 -8 12 -18 23 -21
26 -3 3 -17 21 -30 40 -14 19 -28 40 -33 45 -109 136 -286 424 -397 645 -214
429 -332 795 -420 1305 -41 243 -60 681 -41 965 21 305 61 557 132 829 31 118
121 402 144 456 7 17 31 75 53 130 23 55 47 114 55 130 8 17 30 62 48 100 58
123 209 386 292 510 378 566 914 1070 1482 1395 33 19 78 45 100 58 22 12 103
53 180 91 360 177 797 318 1180 380 258 42 230 39 580 65 76 6 415 -3 550 -14z"/>
<path d="M5172 9408 c-9 -12 -12 -72 -10 -249 l3 -234 26 -2 c48 -3 54 9 59
119 l5 103 55 3 c36 2 62 -2 74 -11 11 -8 42 -59 70 -113 l51 -99 43 -3 c24
-2 42 1 42 7 0 6 -20 52 -45 102 -25 51 -45 97 -45 103 0 6 16 20 35 30 87 47
97 163 21 221 -31 24 -42 26 -202 32 -145 5 -171 4 -182 -9z m341 -99 c20 -27
10 -58 -22 -71 -15 -6 -68 -7 -126 -4 -55 3 -103 6 -107 6 -5 0 -8 20 -8 45
l0 45 124 0 c115 0 126 -2 139 -21z"/>
<path d="M4920 9399 c-30 -5 -104 -15 -164 -23 -116 -16 -146 -29 -177 -79
-23 -36 -22 -77 5 -247 17 -105 34 -136 90 -164 37 -18 40 -18 224 8 103 15
191 31 195 35 5 5 6 23 2 40 -8 38 -10 38 -195 11 -176 -26 -196 -26 -214 3
-21 33 -29 92 -14 104 7 6 69 18 138 27 169 23 170 23 170 47 0 36 -20 61 -43
55 -12 -3 -62 -10 -112 -16 -49 -5 -107 -13 -127 -16 -30 -5 -38 -2 -48 16
-14 25 -5 57 19 70 17 8 149 30 281 45 89 10 92 12 88 53 -3 33 -6 37 -33 38
-16 1 -55 -2 -85 -7z"/>
<path d="M5718 9394 c-5 -4 -8 -22 -8 -40 0 -36 3 -37 111 -50 84 -9 85 -9 71
-101 -29 -207 -42 -287 -47 -291 -12 -12 20 -32 50 -32 35 0 45 13 45 58 0 41
45 307 55 321 6 10 23 12 69 6 33 -4 77 -8 96 -9 33 -1 35 1 38 35 l3 36 -58
11 c-65 13 -292 48 -368 58 -27 3 -53 2 -57 -2z"/>
<path d="M4205 9256 c-57 -19 -175 -54 -208 -62 -16 -4 -31 -12 -33 -19 -3 -6
18 -90 47 -186 29 -96 57 -193 63 -216 7 -24 17 -48 22 -53 13 -13 334 81 374
110 30 21 60 85 60 126 0 44 -28 92 -69 121 -36 25 -40 32 -41 70 0 35 -7 49
-38 83 -35 36 -43 40 -88 40 -27 -1 -67 -7 -89 -14z m117 -83 c24 -22 23 -49
-4 -67 -25 -15 -191 -66 -218 -66 -18 0 -45 69 -32 81 4 4 47 19 96 33 49 14
91 28 94 31 11 11 46 4 64 -12z m101 -171 c19 -17 23 -63 7 -92 -5 -10 -25
-23 -42 -28 -159 -50 -210 -63 -223 -60 -24 4 -57 102 -42 122 7 8 53 27 102
41 50 15 101 30 115 35 30 10 58 3 83 -18z"/>
<path d="M6332 9230 c-123 -56 -176 -202 -118 -326 95 -205 389 -184 452 34
21 70 9 142 -34 211 -56 91 -195 129 -300 81z m180 -83 c82 -50 108 -129 69
-209 -36 -73 -108 -107 -184 -87 -140 37 -168 220 -45 293 54 33 110 34 160 3z"/>
<path d="M3653 9046 c-23 -8 -61 -29 -84 -47 -121 -96 -117 -293 9 -383 85
-62 172 -70 258 -25 57 31 84 58 110 114 65 137 -6 297 -150 340 -59 18 -87
18 -143 1z m157 -98 c56 -39 75 -72 75 -136 0 -101 -71 -168 -170 -160 -128
11 -194 143 -122 248 47 69 152 92 217 48z"/>
<path d="M3220 8813 c-8 -3 -75 -44 -148 -92 -111 -72 -132 -90 -129 -107 5
-28 237 -380 256 -388 17 -8 61 19 61 37 0 7 -25 50 -56 95 -62 94 -62 95 13
139 51 30 65 27 184 -42 43 -25 83 -45 89 -45 18 0 71 41 65 50 -3 4 -48 32
-100 61 -52 30 -95 59 -95 65 0 7 7 25 15 40 53 101 -49 224 -155 187z m82
-108 c9 -21 8 -28 -7 -45 -24 -27 -177 -130 -192 -130 -17 0 -54 56 -48 72 3
7 45 39 93 70 98 65 136 73 154 33z"/>
<path d="M7481 8642 c-121 -200 -129 -212 -157 -212 -26 0 -179 85 -221 123
-28 25 -29 56 -3 90 26 33 25 51 -5 71 -35 23 -40 21 -69 -29 -55 -94 -42
-157 47 -214 29 -19 64 -43 79 -53 15 -10 29 -18 32 -18 3 0 27 -13 53 -30 55
-35 104 -39 149 -11 21 13 61 67 119 162 116 190 115 187 86 210 -13 11 -28
19 -35 19 -6 0 -40 -49 -75 -108z"/>
<path d="M5025 8510 c-49 -5 -100 -14 -112 -20 l-23 -10 0 -2645 0 -2645 -29
0 c-42 0 -250 62 -356 105 -358 147 -626 340 -889 638 -160 182 -305 429 -394
672 -52 143 -94 298 -86 319 6 14 53 16 515 16 280 0 509 3 509 8 0 4 -195
202 -433 440 l-432 432 -531 0 -531 0 -11 -82 c-15 -102 -16 -603 -2 -695 33
-219 44 -281 75 -403 65 -260 124 -416 250 -665 163 -322 324 -544 582 -801
404 -404 924 -694 1473 -823 224 -52 304 -64 530 -82 216 -16 624 5 642 35 4
6 8 676 8 1489 0 1175 3 1477 13 1477 6 0 439 -428 961 -950 522 -523 954
-950 960 -950 21 0 204 244 294 391 88 145 182 327 182 353 0 11 -154 172
-400 416 -220 218 -400 402 -400 409 0 8 135 11 519 11 386 0 522 3 527 12 26
41 43 513 25 688 -21 203 -32 272 -63 410 -155 692 -515 1284 -1061 1744 -92
78 -247 189 -325 234 -35 20 -85 49 -110 64 -335 197 -736 336 -1142 394 -126
18 -603 27 -735 14z m932 -954 c292 -84 570 -229 789 -411 394 -327 655 -737
779 -1223 12 -50 13 -67 4 -78 -10 -12 -134 -14 -858 -14 -465 1 -856 3 -868
7 l-23 5 0 874 0 874 29 0 c16 0 83 -15 148 -34z"/>
<path d="M7774 8436 c-105 -48 -136 -61 -264 -115 -52 -22 -96 -45 -99 -52 -4
-14 37 -48 60 -49 16 0 107 36 201 79 106 48 118 47 99 -12 -6 -17 -17 -66
-26 -107 -9 -41 -21 -94 -27 -118 -10 -41 -9 -45 15 -69 14 -14 32 -23 39 -20
9 3 25 54 42 133 16 71 32 143 36 159 4 17 13 57 20 90 7 33 16 72 20 87 15
50 4 49 -116 -6z"/>
<path d="M2355 8282 c-6 -4 -23 -21 -38 -39 -28 -30 -28 -32 -13 -62 20 -37
26 -38 54 -8 33 35 29 133 -3 109z"/>
<path d="M2444 8193 c-43 -49 -102 -114 -131 -145 -46 -49 -53 -62 -53 -98 0
-22 7 -54 15 -69 20 -41 199 -203 241 -220 72 -29 107 -3 337 255 l37 41 -21
27 c-27 34 -37 33 -74 -8 -16 -18 -66 -73 -110 -121 -44 -48 -84 -93 -88 -101
-4 -8 -20 -14 -35 -14 -34 0 -107 64 -95 83 9 16 135 158 171 192 12 12 22 27
22 32 0 13 -34 43 -48 43 -7 0 -59 -48 -116 -106 -92 -95 -105 -105 -123 -95
-25 13 -37 55 -24 79 5 10 25 32 43 48 49 43 198 209 198 221 0 15 -34 43 -52
43 -9 0 -51 -39 -94 -87z"/>
<path d="M8007 8186 c-65 -32 -95 -61 -123 -121 -30 -62 -31 -143 -5 -201 10
-23 58 -84 107 -135 48 -52 91 -98 96 -103 9 -11 58 31 58 48 0 6 -21 34 -46
61 -144 158 -166 197 -149 262 9 38 50 90 85 108 37 19 113 19 148 1 15 -8 69
-57 121 -110 88 -90 95 -95 115 -83 42 28 32 49 -71 155 -108 111 -161 142
-241 142 -29 -1 -66 -10 -95 -24z"/>
<path d="M2091 7757 c-44 -22 -181 -234 -181 -279 0 -41 34 -101 66 -118 15
-9 49 -14 78 -13 47 1 54 5 89 44 21 24 56 71 79 105 46 72 84 95 123 74 50
-27 49 -69 -3 -149 -58 -90 -81 -111 -122 -111 -29 0 -39 -6 -53 -29 -23 -39
-23 -39 19 -50 95 -26 178 40 264 208 63 125 -63 261 -196 211 -35 -14 -56
-37 -123 -138 -56 -83 -79 -99 -112 -79 -35 22 -29 45 38 147 49 75 72 102 92
106 44 10 46 11 61 38 12 24 12 28 0 36 -21 14 -91 12 -119 -3z"/>
<path d="M8575 7649 c-238 -30 -438 -58 -442 -62 -10 -10 9 -48 30 -61 17 -11
35 -12 77 -6 161 25 230 32 244 27 14 -6 13 -13 -13 -59 -133 -239 -132 -236
-95 -283 15 -20 16 -20 40 10 13 17 24 33 24 37 0 5 23 50 52 100 28 51 64
118 81 148 16 30 41 75 54 98 14 24 21 47 17 51 -5 4 -36 4 -69 0z"/>
<path d="M8800 7340 c-19 -11 -109 -56 -200 -101 -91 -44 -169 -85 -174 -89
-12 -12 13 -70 30 -70 7 0 48 18 90 40 43 22 86 40 96 40 23 0 58 -68 58 -112
0 -24 -15 -53 -56 -108 -76 -101 -79 -110 -60 -149 9 -17 20 -31 24 -31 4 0
36 41 72 90 36 49 71 89 78 89 7 1 25 -8 40 -18 26 -19 50 -24 103 -22 58 2
117 98 99 159 -14 50 -143 302 -154 302 -6 -1 -27 -10 -46 -20z m74 -205 c48
-93 54 -123 34 -143 -16 -16 -53 -15 -66 1 -17 21 -102 195 -102 210 0 7 15
20 33 29 41 20 44 17 101 -97z"/>
<path d="M1885 7254 c-95 -23 -155 -70 -191 -149 -70 -150 36 -326 206 -343
59 -5 112 11 167 52 121 89 126 282 10 381 -50 43 -141 71 -192 59z m130 -119
c94 -71 83 -216 -20 -269 -149 -77 -296 83 -210 229 32 55 75 77 142 72 37 -3
62 -11 88 -32z"/>
<path d="M8866 6765 c-150 -47 -174 -63 -196 -129 -8 -27 -9 -45 -2 -64 6 -15
29 -88 52 -162 23 -74 46 -145 51 -157 10 -27 50 -31 72 -8 13 12 8 35 -40
186 -64 198 -63 207 12 233 26 8 51 13 55 11 5 -3 29 -71 55 -151 46 -146 46
-146 73 -139 45 11 52 25 37 70 -68 204 -78 247 -64 256 21 13 65 11 78 -5 12
-15 111 -311 111 -333 0 -19 18 -25 51 -18 30 7 31 9 26 44 -9 67 -99 335
-121 360 -21 24 -75 51 -98 51 -7 -1 -76 -21 -152 -45z"/>
<path d="M1550 6770 c-6 -4 -12 -22 -13 -41 -2 -36 -11 -33 238 -103 106 -30
125 -41 125 -72 0 -14 -14 -75 -32 -136 -38 -131 -49 -142 -121 -126 -54 13
-67 6 -70 -36 -2 -24 4 -29 38 -42 58 -20 107 -17 146 9 40 27 50 45 83 157
46 153 50 180 32 222 -22 51 -45 64 -193 108 -70 21 -149 45 -174 53 -26 8
-52 11 -59 7z"/>
<path d="M9232 6652 c-8 -6 -10 -19 -6 -41 5 -26 15 -37 42 -48 55 -23 65 -13
44 44 -14 38 -23 49 -42 51 -14 1 -31 -2 -38 -6z"/>
<path d="M1910 4290 c-21 -12 -83 -38 -244 -101 -76 -30 -141 -60 -143 -67 -6
-14 98 -282 128 -332 22 -35 86 -70 129 -70 62 0 129 45 144 97 5 16 18 24 44
28 54 9 83 26 104 60 30 49 22 98 -40 250 -51 125 -60 140 -82 142 -14 1 -32
-2 -40 -7z m17 -112 c5 -7 27 -55 47 -106 32 -79 37 -98 27 -118 -14 -31 -55
-32 -75 -1 -20 30 -86 185 -86 201 0 27 70 46 87 24z m-170 -60 c20 -25 93
-217 93 -243 0 -30 -40 -75 -67 -75 -37 0 -62 32 -107 139 -25 61 -46 118 -46
126 0 10 21 26 53 40 62 28 62 28 74 13z"/>
<path d="M8690 4269 c-22 -41 -9 -60 60 -85 36 -13 74 -28 85 -33 11 -5 32
-13 46 -19 46 -18 98 -72 109 -112 19 -69 -7 -139 -66 -178 -54 -35 -118 -30
-231 18 -134 58 -147 59 -163 20 -15 -36 -12 -39 50 -65 25 -10 69 -29 97 -42
114 -50 193 -54 271 -14 45 23 99 81 118 127 18 43 18 135 0 178 -19 47 -73
104 -119 128 -47 23 -228 98 -239 98 -4 0 -12 -9 -18 -21z"/>
<path d="M2055 3690 c-71 -43 -163 -98 -202 -120 -75 -42 -85 -58 -59 -92 19
-26 31 -23 123 32 46 28 87 50 92 50 12 0 61 -95 61 -120 0 -23 -15 -52 -77
-147 -36 -56 -39 -69 -21 -108 19 -41 40 -29 85 48 24 40 52 83 62 97 19 24
19 24 41 5 17 -15 36 -20 82 -20 56 0 61 2 95 39 33 35 35 42 31 90 -4 42 -19
74 -88 189 -45 75 -86 137 -89 137 -3 0 -64 -36 -136 -80z m178 -143 c62 -104
68 -139 27 -152 -33 -10 -55 11 -116 111 l-58 96 28 25 c16 13 35 23 44 21 8
-2 42 -47 75 -101z"/>
<path d="M8438 3675 c-16 -9 -56 -62 -98 -131 -70 -112 -72 -117 -67 -167 4
-42 10 -56 41 -84 30 -27 44 -33 82 -33 25 0 58 7 73 16 15 9 56 60 90 114 35
54 70 101 78 104 47 19 103 -14 103 -60 0 -26 -81 -161 -111 -186 -12 -10 -34
-18 -49 -18 -46 0 -82 -60 -44 -74 33 -13 100 -5 132 14 30 18 96 110 136 187
18 36 21 99 7 136 -25 65 -114 108 -181 88 -48 -14 -79 -45 -124 -119 -50 -83
-84 -122 -105 -122 -19 0 -51 30 -51 48 0 6 27 56 61 112 41 69 66 100 79 100
32 0 50 11 65 40 10 20 11 30 2 39 -15 15 -87 13 -119 -4z"/>
<path d="M8030 3119 c-63 -72 -135 -153 -159 -180 -23 -27 -41 -55 -38 -62 2
-7 17 -19 32 -27 27 -15 28 -14 89 53 62 68 80 78 100 53 11 -13 205 -183 252
-221 l24 -19 28 27 27 28 -60 57 c-34 31 -100 91 -148 132 -48 41 -87 82 -87
90 0 8 25 41 55 74 30 32 55 67 55 77 0 15 -34 49 -50 49 -3 0 -57 -59 -120
-131z"/>
<path d="M2455 3094 c-162 -39 -208 -50 -287 -66 -66 -13 -74 -30 -33 -68 l24
-23 118 28 c65 15 132 30 150 35 55 14 55 -3 -8 -146 -33 -74 -59 -142 -59
-152 0 -24 47 -69 59 -56 7 8 65 141 167 388 30 73 34 98 16 95 -4 -1 -70 -17
-147 -35z"/>
<path d="M2826 2856 c-15 -13 -26 -28 -26 -34 0 -6 50 -53 110 -104 61 -51
109 -97 107 -102 -2 -5 -50 -20 -108 -32 -57 -12 -140 -30 -184 -39 -44 -10
-100 -21 -125 -24 -74 -10 -65 -24 121 -183 63 -54 94 -80 131 -114 35 -30 62
-31 82 -2 9 12 16 25 16 28 0 4 -30 31 -66 61 -118 96 -160 137 -149 147 6 5
62 19 125 31 263 51 334 68 337 78 4 11 -29 41 -234 217 l-112 96 -25 -24z"/>
<path d="M7723 2801 c-31 -26 -29 -39 15 -86 20 -22 84 -92 142 -155 143 -157
139 -153 164 -137 49 33 48 36 -123 221 -90 97 -166 176 -169 176 -4 -1 -17
-9 -29 -19z"/>
<path d="M7588 2676 c-10 -7 -18 -19 -18 -26 0 -6 48 -77 106 -156 75 -101
105 -150 102 -166 -4 -27 -198 -178 -228 -178 -21 0 -45 20 -71 60 -15 22 -19
23 -43 12 -15 -6 -29 -18 -32 -26 -9 -23 44 -92 89 -116 37 -19 47 -21 82 -11
43 12 242 155 269 193 9 13 16 43 16 71 0 47 -6 57 -112 203 -64 88 -118 154
-127 154 -9 0 -24 -7 -33 -14z"/>
<path d="M3228 2408 c-36 -51 -84 -122 -108 -158 -24 -36 -54 -78 -67 -93 -13
-16 -23 -36 -23 -44 0 -19 28 -42 51 -43 16 0 279 370 279 392 0 14 -31 37
-51 38 -9 0 -44 -41 -81 -92z"/>
<path d="M3418 2373 c-8 -16 -45 -82 -84 -148 -66 -116 -69 -122 -69 -187 0
-60 3 -70 29 -97 27 -29 235 -151 256 -151 8 0 40 51 40 64 0 3 -46 31 -102
62 -57 32 -113 66 -125 77 -23 21 -31 65 -14 82 5 6 25 42 46 80 21 39 55 102
77 142 l39 71 -23 16 c-33 23 -55 20 -70 -11z"/>
<path d="M3835 2083 c-21 -49 -51 -116 -67 -151 -15 -34 -28 -65 -28 -67 0 -3
-11 -28 -25 -57 -14 -28 -25 -57 -25 -64 0 -14 18 -29 46 -38 19 -6 28 8 88
146 38 84 82 184 99 222 30 66 30 69 12 82 -42 31 -59 19 -100 -73z"/>
<path d="M7093 2087 c-72 -40 -134 -75 -138 -79 -7 -7 22 -68 33 -68 18 1 267
138 276 152 7 12 5 23 -7 42 -10 14 -21 26 -25 25 -4 0 -66 -32 -139 -72z"/>
<path d="M6703 2138 c-13 -6 -23 -18 -23 -27 0 -9 18 -68 40 -131 45 -131 48
-158 20 -214 -48 -99 -180 -117 -257 -34 -12 12 -43 81 -69 151 l-47 129 -31
-6 c-17 -4 -34 -10 -39 -15 -5 -5 7 -54 28 -112 55 -156 57 -161 94 -202 74
-82 180 -107 272 -65 100 46 153 126 152 228 -1 65 -82 304 -104 307 -8 1 -24
-3 -36 -9z"/>
<path d="M4053 1838 c-101 -100 -183 -185 -183 -190 0 -4 18 -13 41 -19 l41
-13 111 112 c60 62 116 112 124 112 7 0 13 -11 13 -26 0 -15 4 -43 9 -63 6
-20 16 -78 22 -129 7 -51 18 -97 24 -101 18 -15 75 -24 75 -11 0 16 -70 460
-77 488 -3 12 -8 22 -12 22 -3 0 -88 -82 -188 -182z"/>
<path d="M6141 1959 c-27 -11 -28 -7 24 -224 18 -77 39 -164 45 -193 13 -57
25 -68 65 -58 33 8 32 18 -9 189 -19 78 -38 159 -41 179 -11 61 -32 113 -47
115 -7 1 -24 -2 -37 -8z"/>
<path d="M4557 1863 c-7 -61 -17 -135 -38 -268 -19 -125 -18 -137 13 -146 45
-12 54 6 72 146 10 72 22 134 27 139 5 6 32 -15 70 -55 168 -176 271 -279 280
-279 11 0 15 19 34 155 8 61 21 153 29 205 17 107 11 123 -38 118 l-31 -3 -20
-140 c-15 -104 -24 -141 -35 -143 -8 -1 -86 72 -174 163 -87 91 -164 165 -171
165 -8 0 -14 -21 -18 -57z"/>
<path d="M5953 1903 c-4 -9 1 -84 11 -167 19 -174 20 -212 6 -221 -16 -10
-189 -35 -243 -35 -45 0 -49 2 -63 35 -7 19 -14 45 -14 59 0 29 -21 39 -56 25
-25 -9 -26 -12 -20 -62 9 -69 33 -108 80 -131 36 -17 46 -18 140 -7 175 22
207 30 238 63 16 17 31 41 34 55 6 22 -33 379 -43 396 -9 14 -64 7 -70 -10z"/>
</g>
</svg>
